<svg xmlns="http://www.w3.org/2000/svg" xmlns:xlink="http://www.w3.org/1999/xlink" width="500" zoomAndPan="magnify" viewBox="0 0 375 374.999991" height="500" preserveAspectRatio="xMidYMid meet" version="1.0"><defs><g/></defs><path stroke-linecap="butt" transform="matrix(-0.393887, -0.393887, 0.393887, -0.393887, 128.857246, 238.939847)" fill="none" stroke-linejoin="miter" d="M 58.501711 9.000561 L 212.217972 9.000561 " stroke="#000000" stroke-width="18" stroke-opacity="1" stroke-miterlimit="4"/><path stroke-linecap="round" transform="matrix(-0.393887, -0.393887, 0.393887, -0.393887, 128.857246, 238.939847)" fill="none" stroke-linejoin="round" d="M 9.000116 8.995603 L 35.999634 -18.003915 L 63.00411 9.000561 L 36.004592 36.000079 Z M 9.000116 8.995603 " stroke="#000000" stroke-width="18" stroke-opacity="1" stroke-miterlimit="4"/><path stroke-linecap="round" transform="matrix(-0.393887, -0.393887, 0.393887, -0.393887, 128.857246, 238.939847)" fill="none" stroke-linejoin="round" d="M 261.714608 9.000561 L 234.715091 -17.998956 L 207.715573 9.000561 L 234.715091 36.000079 Z M 261.714608 9.000561 " stroke="#000000" stroke-width="18" stroke-opacity="1" stroke-miterlimit="4"/><path stroke-linecap="butt" transform="matrix(0.393887, -0.393887, 0.393887, 0.393887, 25.073398, 231.696753)" fill="none" stroke-linejoin="miter" d="M -0.00208881 8.999052 L 270.71704 8.999052 " stroke="#000000" stroke-width="18" stroke-opacity="1" stroke-miterlimit="4"/><path fill="#000000" d="M 45.847656 212.007812 L 75.929688 212.007812 L 75.929688 222.035156 L 45.847656 222.035156 M 85.953125 212.007812 L 116.035156 212.007812 L 116.035156 222.035156 L 85.953125 222.035156 " fill-opacity="1" fill-rule="nonzero"/><path fill="#000000" d="M 45.847656 141.75 L 75.929688 141.75 L 75.929688 151.777344 L 45.847656 151.777344 M 85.953125 141.75 L 116.035156 141.75 L 116.035156 151.777344 L 85.953125 151.777344 " fill-opacity="1" fill-rule="nonzero"/><path stroke-linecap="butt" transform="matrix(0.557041, 0, 0, 0.557041, 25.776695, 176.9151)" fill="none" stroke-linejoin="miter" d="M 0.00116426 9.002192 L 191.421485 9.002192 " stroke="#000000" stroke-width="18" stroke-opacity="1" stroke-miterlimit="4"/><path stroke-linecap="butt" transform="matrix(0.557041, 0.00000000000000017, -0.00000000000000017, 0.557041, 28.619351, 235.397212)" fill="none" stroke-linejoin="miter" d="M 0.00312898 8.999243 L 186.318347 8.999243 " stroke="#000000" stroke-width="18" stroke-opacity="1" stroke-miterlimit="4"/><path stroke-linecap="butt" transform="matrix(0.000000000972219, -0.557041, 0.557041, 0.000000000972219, 18.588924, 245.146712)" fill="none" stroke-linejoin="miter" d="M -0.00309778 8.998694 L 122.119659 8.998694 " stroke="#000000" stroke-width="18" stroke-opacity="1" stroke-miterlimit="4"/><path stroke-linecap="butt" transform="matrix(0, -0.557041, 0.557041, 0, 130.233469, 186.616687)" fill="none" stroke-linejoin="miter" d="M -0.000898596 8.998669 L 122.121858 8.998669 " stroke="#000000" stroke-width="18" stroke-opacity="1" stroke-miterlimit="4"/><path stroke-linecap="butt" transform="matrix(0.557041, 0.00000000000000017, -0.00000000000000017, 0.557041, 28.619351, 118.739289)" fill="none" stroke-linejoin="miter" d="M 0.00312898 9.002246 L 186.318347 9.002246 " stroke="#000000" stroke-width="18" stroke-opacity="1" stroke-miterlimit="4"/><path stroke-linecap="butt" transform="matrix(0.000000000972219, -0.557041, 0.557041, 0.000000000972219, 38.32929, 217.105167)" fill="none" stroke-linejoin="miter" d="M -0.000542506 9.001963 L 135.579209 9.001963 " stroke="#000000" stroke-width="18" stroke-opacity="1" stroke-miterlimit="4"/><g fill="#000000" fill-opacity="1"><g transform="translate(140.263896, 231.410094)"><g><path d="M 36.015625 -5.078125 C 32.085938 -1.816406 27.601562 -0.1875 22.5625 -0.1875 C 16.863281 -0.1875 11.988281 -2.210938 7.9375 -6.265625 C 3.882812 -10.304688 1.859375 -15.179688 1.859375 -20.890625 C 1.859375 -26.628906 3.882812 -31.523438 7.9375 -35.578125 C 11.988281 -39.628906 16.863281 -41.65625 22.5625 -41.65625 C 27.644531 -41.65625 32.128906 -40 36.015625 -36.6875 L 29.8125 -30.5625 C 27.707031 -32.164062 25.289062 -32.96875 22.5625 -32.96875 C 19.257812 -32.96875 16.429688 -31.789062 14.078125 -29.4375 C 11.710938 -27.082031 10.53125 -24.234375 10.53125 -20.890625 C 10.53125 -17.585938 11.710938 -14.753906 14.078125 -12.390625 C 16.429688 -10.035156 19.257812 -8.859375 22.5625 -8.859375 C 25.289062 -8.859375 27.707031 -9.664062 29.8125 -11.28125 Z M 36.015625 -5.078125 "/></g></g></g><g fill="#000000" fill-opacity="1"><g transform="translate(177.079386, 231.410094)"><g><path d="M 10.46875 -43.203125 L 10.46875 -35.890625 L 1.859375 -35.890625 L 1.859375 -43.203125 Z M 10.53125 -31.859375 L 10.53125 0 L 1.859375 0 L 1.859375 -31.859375 Z M 10.53125 -31.859375 "/></g></g></g><g fill="#000000" fill-opacity="1"><g transform="translate(189.475208, 231.410094)"><g><path d="M 27.390625 -3.84375 C 24.378906 -1.28125 20.867188 0 16.859375 0 C 12.441406 -0.0390625 8.679688 -1.628906 5.578125 -4.765625 C 2.484375 -7.910156 0.953125 -11.671875 0.984375 -16.046875 C 1.023438 -20.472656 2.617188 -24.234375 5.765625 -27.328125 C 8.898438 -30.429688 12.660156 -31.960938 17.046875 -31.921875 C 21.015625 -31.878906 24.484375 -30.554688 27.453125 -27.953125 L 21.6875 -22.25 C 20.289062 -23.28125 18.722656 -23.796875 16.984375 -23.796875 C 14.835938 -23.796875 12.976562 -23.054688 11.40625 -21.578125 C 9.875 -20.046875 9.109375 -18.179688 9.109375 -15.984375 C 9.023438 -13.835938 9.769531 -11.976562 11.34375 -10.40625 C 12.832031 -8.925781 14.691406 -8.144531 16.921875 -8.0625 C 18.660156 -8.0625 20.226562 -8.578125 21.625 -9.609375 Z M 27.390625 -3.84375 "/></g></g></g><g fill="#000000" fill-opacity="1"><g transform="translate(217.86163, 231.410094)"><g><path d="M 14.75 0 C 12.601562 0 10.722656 -0.328125 9.109375 -0.984375 C 7.828125 -1.441406 6.503906 -2.289062 5.140625 -3.53125 C 2.785156 -5.71875 1.710938 -8.488281 1.921875 -11.84375 L 1.921875 -12.515625 L 8.859375 -12.390625 L 9.421875 -12.390625 L 9.421875 -11.90625 C 9.460938 -10.863281 9.691406 -10.015625 10.109375 -9.359375 C 10.804688 -8.160156 12.351562 -7.5625 14.75 -7.5625 C 16.738281 -7.5625 18.164062 -7.789062 19.03125 -8.25 C 19.488281 -8.445312 19.796875 -8.710938 19.953125 -9.046875 C 20.035156 -9.171875 20.078125 -9.296875 20.078125 -9.421875 L 20.140625 -9.734375 C 20.140625 -10.597656 19.457031 -11.300781 18.09375 -11.84375 C 17.5625 -12.050781 16.941406 -12.210938 16.234375 -12.328125 C 15.703125 -12.453125 15.101562 -12.554688 14.4375 -12.640625 C 11.957031 -12.890625 9.894531 -13.382812 8.25 -14.125 C 6.59375 -14.789062 5.226562 -15.703125 4.15625 -16.859375 C 2.664062 -18.554688 1.921875 -20.5 1.921875 -22.6875 C 1.921875 -24.050781 2.171875 -25.3125 2.671875 -26.46875 C 3.035156 -27.375 3.53125 -28.179688 4.15625 -28.890625 C 6.382812 -31.453125 9.957031 -32.734375 14.875 -32.734375 C 17.8125 -32.734375 20.289062 -32.148438 22.3125 -30.984375 C 23.882812 -30.117188 25.144531 -28.941406 26.09375 -27.453125 C 26.84375 -26.335938 27.359375 -25.035156 27.640625 -23.546875 C 27.722656 -23.054688 27.785156 -22.582031 27.828125 -22.125 L 27.828125 -20.828125 L 20.328125 -20.828125 L 20.328125 -21.75 C 20.285156 -21.914062 20.265625 -22.082031 20.265625 -22.25 C 20.140625 -22.707031 19.972656 -23.082031 19.765625 -23.375 C 18.859375 -24.613281 17.226562 -25.234375 14.875 -25.234375 C 11.40625 -25.234375 9.671875 -24.507812 9.671875 -23.0625 C 9.671875 -22.3125 10.082031 -21.710938 10.90625 -21.265625 C 11.769531 -20.722656 13.238281 -20.328125 15.3125 -20.078125 C 20.0625 -19.585938 23.507812 -18.082031 25.65625 -15.5625 C 27.101562 -13.863281 27.828125 -11.921875 27.828125 -9.734375 L 27.828125 -9.296875 L 27.765625 -8.734375 C 27.765625 -8.203125 27.703125 -7.707031 27.578125 -7.25 C 27.253906 -5.925781 26.632812 -4.75 25.71875 -3.71875 C 24.6875 -2.476562 23.242188 -1.550781 21.390625 -0.9375 C 19.523438 -0.3125 17.3125 0 14.75 0 Z M 14.75 0 "/></g></g></g><g fill="#000000" fill-opacity="1"><g transform="translate(243.892733, 231.410094)"><g><path d="M 32.484375 -30.625 L 22 -30.625 L 22 0 L 12.328125 0 L 12.328125 -30.625 L 1.859375 -30.625 L 1.859375 -40.296875 L 32.484375 -40.296875 Z M 32.484375 -30.625 "/></g></g></g><g fill="#000000" fill-opacity="1"><g transform="translate(277.67134, 231.410094)"><g><path d="M 44.75 -40.296875 L 44.75 0 L 35.078125 0 L 35.078125 -22.5625 L 23.125 -14.9375 L 11.53125 -22.5 L 11.53125 0 L 1.859375 0 L 1.859375 -40.296875 L 23.25 -26.46875 Z M 44.75 -40.296875 "/></g></g></g><g fill="#000000" fill-opacity="1"><g transform="translate(324.279616, 231.410094)"><g><path d="M 11.53125 -8.671875 L 30.9375 -8.671875 L 30.9375 0 L 1.859375 0 L 1.859375 -40.296875 L 11.53125 -40.296875 Z M 11.53125 -8.671875 "/></g></g></g></svg>